<?xml version="1.0" encoding="UTF-8" standalone="no"?>
<!DOCTYPE svg PUBLIC "-//W3C//DTD SVG 1.0//EN" "http://www.w3.org/TR/2001/PR-SVG-20010719/DTD/svg10.dtd">
<svg width="27cm" height="6cm" viewBox="328 350 530 108" xmlns="http://www.w3.org/2000/svg" xmlns:xlink="http://www.w3.org/1999/xlink">
  <g>
    <rect style="fill: #ffffff" x="386" y="351" width="287.2" height="28"/>
    <rect style="fill: none; fill-opacity:0; stroke-width: 2; stroke: #000000" x="386" y="351" width="287.2" height="28"/>
    <text font-size="16" style="fill: #000000;text-anchor:middle;font-family:sans-serif;font-style:normal;font-weight:700" x="529.6" y="370">Employee</text>
    <rect style="fill: #ffffff" x="386" y="379" width="287.2" height="20"/>
    <rect style="fill: none; fill-opacity:0; stroke-width: 2; stroke: #000000" x="386" y="379" width="287.2" height="20"/>
    <text font-size="12.8" style="fill: #000000;text-anchor:start;font-family:monospace;font-style:normal;font-weight:normal" x="389" y="393">-salary: int</text>
    <rect style="fill: #ffffff" x="386" y="399" width="287.2" height="52"/>
    <rect style="fill: none; fill-opacity:0; stroke-width: 2; stroke: #000000" x="386" y="399" width="287.2" height="52"/>
    <text font-size="12.8" style="fill: #000000;text-anchor:start;font-family:monospace;font-style:normal;font-weight:normal" x="389" y="413">-validateSalary(salary:int): boolean</text>
    <text font-size="12.8" style="fill: #000000;text-anchor:start;font-family:monospace;font-style:normal;font-weight:normal" x="389" y="429">+setSalary(salary:int): void</text>
    <text font-size="12.8" style="fill: #000000;text-anchor:start;font-family:monospace;font-style:normal;font-weight:normal" x="389" y="445">+getSalary(): int</text>
  </g>
  <g>
    <polyline style="fill: none; fill-opacity:0; stroke-width: 2; stroke: #000000" points="386,425 335,425 335,409 376.264,409 "/>
    <polygon style="fill: #000000" points="383.764,409 373.764,414 376.264,409 373.764,404 "/>
    <polygon style="fill: none; fill-opacity:0; stroke-width: 2; stroke: #000000" points="383.764,409 373.764,414 376.264,409 373.764,404 "/>
  </g>
  <text font-size="12.8" style="fill: #000000;text-anchor:start;font-family:sans-serif;font-style:normal;font-weight:normal" x="345" y="422">
    <tspan x="345" y="422">calls</tspan>
  </text>
  <g>
    <rect style="fill: #ffffff" x="785.9" y="388.824" width="71.05" height="36"/>
    <rect style="fill: none; fill-opacity:0; stroke-width: 2; stroke: #000000" x="785.9" y="388.824" width="71.05" height="36"/>
    <text font-size="22.4" style="fill: #000000;text-anchor:middle;font-family:sans-serif;font-style:normal;font-weight:700" x="821.425" y="413.824">Main</text>
  </g>
  <g>
    <polyline style="fill: none; fill-opacity:0; stroke-width: 2; stroke: #000000" points="785.9,388.824 753,388.824 753,389 693.2,389 "/>
    <line style="fill: none; fill-opacity:0; stroke-width: 2; stroke: #000000" x1="673.2" y1="389" x2="677.2" y2="389"/>
    <line style="fill: none; fill-opacity:0; stroke-width: 2; stroke: #000000" x1="679.867" y1="389" x2="683.867" y2="389"/>
    <line style="fill: none; fill-opacity:0; stroke-width: 2; stroke: #000000" x1="686.533" y1="389" x2="690.533" y2="389"/>
  </g>
  <g>
    <polyline style="fill: none; fill-opacity:0; stroke-width: 2; stroke: #000000" points="785.9,388.824 753,388.824 753,409 693.2,409 "/>
    <line style="fill: none; fill-opacity:0; stroke-width: 2; stroke: #000000" x1="673.2" y1="409" x2="677.2" y2="409"/>
    <line style="fill: none; fill-opacity:0; stroke-width: 2; stroke: #000000" x1="679.867" y1="409" x2="683.867" y2="409"/>
    <line style="fill: none; fill-opacity:0; stroke-width: 2; stroke: #000000" x1="686.533" y1="409" x2="690.533" y2="409"/>
  </g>
  <g>
    <polyline style="fill: none; fill-opacity:0; stroke-width: 2; stroke: #000000" points="785.9,424.824 753,424.824 753,441 682.936,441 "/>
    <polygon style="fill: #000000" points="675.436,441 685.436,436 682.936,441 685.436,446 "/>
    <polygon style="fill: none; fill-opacity:0; stroke-width: 2; stroke: #000000" points="675.436,441 685.436,436 682.936,441 685.436,446 "/>
  </g>
  <g>
    <polyline style="fill: none; fill-opacity:0; stroke-width: 2; stroke: #000000" points="785.9,424.824 753,424.824 753,425 682.936,425 "/>
    <polygon style="fill: #000000" points="675.436,425 685.436,420 682.936,425 685.436,430 "/>
    <polygon style="fill: none; fill-opacity:0; stroke-width: 2; stroke: #000000" points="675.436,425 685.436,420 682.936,425 685.436,430 "/>
  </g>
  <text font-size="12.8" style="fill: #000000;text-anchor:start;font-family:sans-serif;font-style:normal;font-weight:normal" x="688" y="379">
    <tspan x="688" y="379">cannot access</tspan>
  </text>
  <text font-size="12.8" style="fill: #000000;text-anchor:start;font-family:sans-serif;font-style:normal;font-weight:normal" x="698.9" y="454.4">
    <tspan x="698.9" y="454.4">can access</tspan>
  </text>
  <g>
    <polyline style="fill: none; fill-opacity:0; stroke-width: 2; stroke: #000000" points="386,441 329,441 329,389 376.264,389 "/>
    <polygon style="fill: #000000" points="383.764,389 373.764,394 376.264,389 373.764,384 "/>
    <polygon style="fill: none; fill-opacity:0; stroke-width: 2; stroke: #000000" points="383.764,389 373.764,394 376.264,389 373.764,384 "/>
  </g>
  <text font-size="12.8" style="fill: #000000;text-anchor:start;font-family:sans-serif;font-style:normal;font-weight:normal" x="346.9" y="381.4">
    <tspan x="346.9" y="381.4">sets</tspan>
  </text>
</svg>
